# xmcd CD database file
#
# Track frame offsets:
#	150
#	64308
#	80888
#	97618
#	114340
#	133178
#	156203
#	170183
#	183240
#	199020
#	227042
#	239607
#
# Disc length: 3958 seconds
#
# Revision: 0
# Processed by: cddbd v1.4PL0 Copyright (c) Steve Scherf et al.
# Submitted via: CDex 1.50
#
DISCID=a40f740c
DTITLE=Chocolate Genius - Black Music
DYEAR=1900
DGENRE=Blues
TTITLE0=CD
TTITLE1=Life
TTITLE2=Half A Man
TTITLE3=Don't Look Down
TTITLE4=Clinic
TTITLE5=My Mom
TTITLE6=Safe And Sound
TTITLE7=A Cheap Excuse
TTITLE8=Hangover Five
TTITLE9=Hangover Nine
TTITLE10=Stupid Again
TTITLE11=It's All Good
EXTD=
EXTT0=
EXTT1=
EXTT2=
EXTT3=
EXTT4=
EXTT5=
EXTT6=
EXTT7=
EXTT8=
EXTT9=
EXTT10=
EXTT11=
PLAYORDER=
